<!-- <svg xmlns="http://www.w3.org/2000/svg" viewBox="0 0 100 100">
  <rect width="100" height="100" rx="12" fill="#0d0d0d"/>
  <polygon points="50,8 84,26 84,74 50,92 16,74 16,26" fill="none" stroke="#ffffff" stroke-width="4"/>
  <polygon points="50,22 70,33 70,67 50,78 30,67 30,33" fill="none" stroke="#555" stroke-width="1.5"/>
  <line x1="16" y1="26" x2="30" y2="33" stroke="#ffffff" stroke-width="2"/>
  <line x1="84" y1="26" x2="70" y2="33" stroke="#ffffff" stroke-width="2"/>
  <line x1="84" y1="74" x2="70" y2="67" stroke="#ffffff" stroke-width="2"/>
  <line x1="16" y1="74" x2="30" y2="67" stroke="#ffffff" stroke-width="2"/>
  <line x1="50" y1="8" x2="50" y2="22" stroke="#ffffff" stroke-width="2"/>
  <line x1="50" y1="92" x2="50" y2="78" stroke="#ffffff" stroke-width="2"/>
  <circle cx="16" cy="26" r="3" fill="#ffffff"/>
  <circle cx="84" cy="26" r="3" fill="#ffffff"/>
  <circle cx="84" cy="74" r="3" fill="#ffffff"/>
  <circle cx="16" cy="74" r="3" fill="#ffffff"/>
  <circle cx="50" cy="8" r="3" fill="#ffffff"/>
  <circle cx="50" cy="92" r="3" fill="#ffffff"/>
  <text x="50" y="62" font-family="Arial, sans-serif" font-size="30" font-weight="700" fill="#ffffff" text-anchor="middle">O</text>
</svg> -->

<svg xmlns="http://www.w3.org/2000/svg" viewBox="0 0 100 100">
  <rect width="100" height="100" rx="12" fill="#0d0d0d"/>
  <circle cx="50" cy="50" r="32" fill="none" stroke="#ffffff" stroke-width="14"/>
</svg>